{"title":"Ask Kirmizi 2013 DVDRip XviD. salpsalp","uid":8716499,"size":740571508,"categoryP":"video","categoryS":"movies","magnet":"?xt=urn:btih:6a022d9510c19ef194ba93433f48df5b77f5b237&amp;dn=Ask+Kirmizi+2013+DVDRip+XviD.+salpsalp&amp;tr=udp%3A%2F%2Ftracker.openbittorrent.com%3A80&amp;tr=udp%3A%2F%2Fopen.demonii.com%3A1337&amp;tr=udp%3A%2F%2Ftracker.coppersurfer.tk%3A6969&amp;tr=udp%3A%2F%2Fexodus.desync.com%3A6969","seeders":2,"leechers":1,"uploader":"salpsalp","files":1,"time":1374338826,"description":"General\nComplete name                  : D:driversAsk.Kirmizi.2013.DVDRip.XviD.avi\nFormat                         : AVI\nFormat/Info                    : Audio Video Interleave\nFormat profile                 : OpenDML\nFormat settings                : rec\nFile size                      : 706 MiB\nDuration                       : 1h 45mn\nOverall bit rate               : 939 Kbps\nWriting application            : AVI-Mux GUI 1.17.8.3, Feb 16 201019:42:50\n\nVideo\nID                             : 0\nFormat                         : MPEG-4 Visual\nFormat profile                 : Simple@L3\nFormat settings, BVOP          : No\nFormat settings, QPel          : No\nFormat settings, GMC           : No warppoints\nFormat settings, Matrix        : Default (H.263)\nCodec ID                       : DIVX\nCodec ID/Info                  : Project Mayo\nCodec ID/Hint                  : DivX 4\nDuration                       : 1h 45mn\nBit rate                       : 803 Kbps\nWidth                          : 640 pixels\nHeight                         : 360 pixels\nDisplay aspect ratio           : 16:9\nFrame rate                     : 25.000 fps\nColor space                    : YUV\nChroma subsampling             : 4:2:0\nBit depth                      : 8 bits\nScan type                      : Progressive\nCompression mode               : Lossy\nBits/(Pixel*Frame)             : 0.139\nStream size                    : 604 MiB (85%)\nWriting library                : Lavc54.92.100\n\nAudio\nID                             : 1\nFormat                         : MPEG Audio\nFormat version                 : Version 1\nFormat profile                 : Layer 3\nMode                           : Joint stereo\nMode extension                 : MS Stereo\nCodec ID                       : 55\nCodec ID/Hint                  : MP3\nDuration                       : 1h 45mn\nBit rate mode                  : Constant\nBit rate                       : 128 Kbps\nChannel(s)                     : 2 channels\nSampling rate                  : 44.1 KHz\nCompression mode               : Lossy\nStream size                    : 96.2 MiB (14%)\nAlignment                      : Aligned on interleaves\nInterleave, duration           : 26 ms (0.65 video frame)\nInterleave, preload duration   : 182 ms\nWriting library                : LAME3.99.5\n","torrent":{"xt":"urn:btih:6a022d9510c19ef194ba93433f48df5b77f5b237","amp;dn":"Ask+Kirmizi+2013+DVDRip+XviD.+salpsalp","amp;tr":["udp%3A%2F%2Ftracker.openbittorrent.com%3A80","udp%3A%2F%2Fopen.demonii.com%3A1337","udp%3A%2F%2Ftracker.coppersurfer.tk%3A6969","udp%3A%2F%2Fexodus.desync.com%3A6969"],"infoHash":"6a022d9510c19ef194ba93433f48df5b77f5b237","infoHashBuffer":{"type":"Buffer","data":[106,2,45,149,16,193,158,241,148,186,147,67,63,72,223,91,119,245,178,55]},"announce":[],"urlList":[]}}